<?xml version="1.0" encoding="iso-8859-1"?>
<!-- Generator: Adobe Illustrator 23.0.6, SVG Export Plug-In . SVG Version: 6.00 Build 0)  -->
<svg version="1.1" id="Layer_1" xmlns="http://www.w3.org/2000/svg" xmlns:xlink="http://www.w3.org/1999/xlink" x="0px" y="0px"
	 width="206.058px" height="57.862px" viewBox="0 0 206.058 57.862" enable-background="new 0 0 206.058 57.862"
	 xml:space="preserve">
<g>
	<g>
		<path fill="#231039" d="M51.895,56.663h11.988L42.305,0H29.518L7.779,56.663h11.669l16.223-44.435L51.895,56.663z M77.788,28.132
			c0-2.238,2.238-3.916,5.035-3.916c4.476,0,6.154,2.957,6.474,5.275l8.871-1.998c-0.48-4.236-4.236-11.349-15.425-11.349
			c-8.471,0-14.705,5.834-14.705,12.867c0,5.514,3.437,10.07,11.029,11.748l5.195,1.199c3.037,0.639,4.235,2.078,4.235,3.836
			c0,2.078-1.678,3.916-5.194,3.916c-4.636,0-6.953-2.877-7.193-5.994l-9.111,1.998c0.48,4.476,4.555,12.148,16.384,12.148
			c10.309,0,15.264-6.553,15.264-12.947c0-5.754-3.916-10.469-11.668-12.068l-5.594-1.199C79.227,31.249,77.788,30.05,77.788,28.132
			 M122.224,57.223c3.117,0,5.035-0.56,5.994-0.959v-8.791c-0.56,0.159-1.998,0.319-3.277,0.319c-3.037,0-4.635-1.119-4.635-4.555
			V26.773h7.912v-9.43h-7.912V5.594h-9.591v5.515c0,3.516-1.918,6.234-6.074,6.234h-1.998v9.43h7.113v18.302
			C109.756,52.667,114.551,57.223,122.224,57.223 M157.467,27.572c0.959,0,1.998,0.08,3.197,0.32V17.183
			c-0.799-0.08-1.598-0.16-2.477-0.16c-3.357,0-8.792,0.959-11.189,6.154v-5.834h-10.31v39.32h10.63V38.681
			C147.318,30.21,152.033,27.572,157.467,27.572 M195.429,37.003c0,7.433-4.796,11.189-9.99,11.189c-5.195,0-9.99-3.836-9.99-11.189
			c0-7.433,4.795-11.189,9.99-11.189C190.633,25.814,195.429,29.57,195.429,37.003 M206.058,37.003
			c0-12.148-8.871-20.859-20.619-20.859c-11.749,0-20.62,8.711-20.62,20.859c0,12.068,8.871,20.859,20.62,20.859
			C197.187,57.862,206.058,49.071,206.058,37.003"/>
	</g>

		<linearGradient id="SVGID_1_" gradientUnits="userSpaceOnUse" x1="-202.1547" y1="417.11" x2="-201.1547" y2="417.11" gradientTransform="matrix(-40.6637 -22.0786 -22.0786 40.6637 1037.915 -21377.2715)">
		<stop  offset="0" style="stop-color:#231039"/>
		<stop  offset="1" style="stop-color:#F36D21"/>
	</linearGradient>
	<polyline fill="url(#SVGID_1_)" points="4.896,15.435 56.838,49.111 51.942,56.663 0,22.987 	"/>
</g>
<g>
</g>
<g>
</g>
<g>
</g>
<g>
</g>
<g>
</g>
<g>
</g>
</svg>
